# xmcd
#
# Track frame offsets: 
#        150
#        44014
#        76451
#        94194
#        127813
#        176825
#        196004
#        231026
#
# Disc length: 3618 seconds
#
# Revision: 0
# Processed by: cddbd v1.5PL3 Copyright (c) Steve Scherf et al.
# Submitted via: ExactAudioCopy v0.95a4
#
DISCID=610e2008
DTITLE=Willie King and "Birmingham" George  Conner - Walkin' The Walk, T
DTITLE=alkin' The Talk
DYEAR=1999
DGENRE=Blues
TTITLE0=Let's Come Together
TTITLE1=I'm Leaving
TTITLE2=Willies Story
TTITLE3=Poor Boy
TTITLE4=I Want To Get Married
TTITLE5=Strollin' With Willie
TTITLE6=I Miss When You're Gone
TTITLE7=Freedom Creek Blues
EXTD=
EXTT0=
EXTT1=
EXTT2=
EXTT3=
EXTT4=
EXTT5=
EXTT6=
EXTT7=
PLAYORDER=
